<?xml version="1.0" encoding="UTF-8"?><svg width="24px" height="24px" stroke-width="1.5" viewBox="0 0 24 24" fill="none" xmlns="http://www.w3.org/2000/svg" color="#000000"><path d="M4 20.01l.01-.011M4 16.01l.01-.011M4 8.01l.01-.011M4 4.01l.01-.011M8 4.01l.01-.011M16 4.01l.01-.011M20 4.01l.01-.011M20 8.01l.01-.011M8 20.01l.01-.011M16 20.01l.01-.011M20 20.01l.01-.011M20 16.01l.01-.011M4 12h8m8 0h-8m0 0V4m0 8v8" stroke="#000000" stroke-width="1.5" stroke-linecap="round" stroke-linejoin="round"></path></svg>