<?xml version="1.0" encoding="UTF-8"?><svg xmlns="http://www.w3.org/2000/svg" width="24px" height="24px" fill="none" stroke-width="1.5" viewBox="0 0 24 24" color="#000000"><path stroke="#000000" stroke-width="1.5" stroke-linecap="round" stroke-linejoin="round" d="M7 14a3 3 0 1 0 1 5.83"></path><path stroke="#000000" stroke-width="1.5" stroke-linecap="round" stroke-linejoin="round" d="M4.264 15.605a4 4 0 0 1-.874-6.636M3.42 8.888A2.5 2.5 0 0 1 7 5.5M7.238 5.565A2.5 2.5 0 1 1 12 4.5V20M8 20a2 2 0 1 0 4 0M12 7a3 3 0 0 0 3 3M17 14a3 3 0 1 1-1 5.83"></path><path stroke="#000000" stroke-width="1.5" stroke-linecap="round" stroke-linejoin="round" d="M19.736 15.605a4 4 0 0 0 .874-6.636M20.58 8.888A2.5 2.5 0 0 0 17 5.5M12 4.5a2.5 2.5 0 1 1 4.762 1.065M16 20a2 2 0 1 1-4 0"></path></svg>