<?xml version="1.0" encoding="UTF-8" standalone="no"?>
<svg
   class="icon icon-tabler icon-tabler-grain"
   width="24"
   height="24"
   viewBox="0 0 24 24"
   stroke-width="2"
   stroke="currentColor"
   fill="none"
   stroke-linecap="round"
   stroke-linejoin="round"
   version="1.1"
   id="svg9"
   sodipodi:docname="grain_cog.svg"
   inkscape:version="1.3 (0e150ed6c4, 2023-07-21)"
   xmlns:inkscape="http://www.inkscape.org/namespaces/inkscape"
   xmlns:sodipodi="http://sodipodi.sourceforge.net/DTD/sodipodi-0.dtd"
   xmlns="http://www.w3.org/2000/svg"
   xmlns:svg="http://www.w3.org/2000/svg">
  <defs
     id="defs9" />
  <sodipodi:namedview
     id="namedview9"
     pagecolor="#ffffff"
     bordercolor="#000000"
     borderopacity="0.25"
     inkscape:showpageshadow="2"
     inkscape:pageopacity="0.0"
     inkscape:pagecheckerboard="0"
     inkscape:deskcolor="#d1d1d1"
     inkscape:zoom="34.208333"
     inkscape:cx="12"
     inkscape:cy="12"
     inkscape:window-width="2560"
     inkscape:window-height="1017"
     inkscape:window-x="-8"
     inkscape:window-y="-8"
     inkscape:window-maximized="1"
     inkscape:current-layer="svg9" />
  <path
     stroke="none"
     d="m -2.2,-2.2 h 22 v 22 h -22 z"
     fill="none"
     id="path1"
     style="stroke-width:1.83334" />
  <path
     d="m 1.925,6.508334 m -0.9166667,0 a 0.9166667,0.91666669 0 1 0 1.8333334,0 0.9166667,0.91666669 0 1 0 -1.8333334,0"
     id="path2"
     style="stroke-width:1.83334" />
  <path
     d="m 6.508333,1.925 m -0.9166663,0 a 0.9166667,0.91666669 0 1 0 1.8333333,0 0.9166667,0.91666669 0 1 0 -1.8333333,0"
     id="path3"
     style="stroke-width:1.83334" />
  <path
     d="m 6.508333,11.091667 m -0.9166663,0 a 0.9166667,0.91666669 0 1 0 1.8333333,0 0.9166667,0.91666669 0 1 0 -1.8333333,0"
     id="path4"
     style="stroke-width:1.83334" />
  <path
     d="m 1.925,15.675 m -0.9166667,0 a 0.9166667,0.91666669 0 1 0 1.8333334,0 0.9166667,0.91666669 0 1 0 -1.8333334,0"
     id="path5"
     style="stroke-width:1.83334" />
  <path
     d="m 11.091667,6.508334 m -0.916667,0 a 0.916667,0.91666699 0 1 0 1.833334,0 0.916667,0.91666699 0 1 0 -1.833334,0"
     id="path6"
     style="stroke-width:1.83334" />
  <path
     d="m 15.675,1.925 m -0.916667,0 a 0.916667,0.91666699 0 1 0 1.833334,0 0.916667,0.91666699 0 1 0 -1.833334,0"
     id="path7"
     style="stroke-width:1.83334" />
  <path
     d="m 11.091667,15.675 m -0.916667,0 a 0.916667,0.91666699 0 1 0 1.833334,0 0.916667,0.91666699 0 1 0 -1.833334,0"
     id="path8"
     style="stroke-width:1.83334" />
  <path
     d="m 15.675,11.091667 m -0.916667,0 a 0.916667,0.91666699 0 1 0 1.833334,0 0.916667,0.91666699 0 1 0 -1.833334,0"
     id="path9"
     style="stroke-width:1.83334" />
  <path
     stroke-linecap="round"
     stroke-linejoin="round"
     d="m 17.743561,14.979703 c 0.04708,-0.270347 0.292972,-0.468868 0.580712,-0.468868 h 1.356566 c 0.287741,0 0.533628,0.198521 0.580713,0.468868 l 0.111434,0.638958 c 0.03296,0.18655 0.16375,0.342174 0.337441,0.433952 0.03872,0.01995 0.07691,0.0414 0.115096,0.06335 0.169505,0.09776 0.376679,0.128191 0.562403,0.06185 l 0.636691,-0.227453 a 0.58856025,0.56114547 0 0 1 0.716736,0.244411 l 0.678021,1.120794 a 0.58856025,0.56114547 0 0 1 -0.136024,0.713777 l -0.524733,0.412504 c -0.153288,0.119711 -0.229146,0.305763 -0.225485,0.494806 a 3.53607,3.3713619 0 0 1 0,0.127193 c -0.0037,0.188545 0.0722,0.374097 0.224961,0.493808 l 0.525781,0.413003 c 0.221822,0.174578 0.27937,0.475851 0.136023,0.713278 l -0.679068,1.120795 a 0.58856025,0.56114547 0 0 1 -0.716212,0.244909 l -0.636691,-0.227451 c -0.185724,-0.06634 -0.392374,-0.03591 -0.562925,0.06185 a 3.4371918,3.2770894 0 0 1 -0.115097,0.06385 c -0.173168,0.09128 -0.303959,0.246904 -0.336918,0.433454 L 20.261552,23.0198 c -0.04709,0.270846 -0.292972,0.469367 -0.580713,0.469367 H 18.32375 c -0.287741,0 -0.533628,-0.198521 -0.580713,-0.468869 l -0.111434,-0.638957 c -0.03244,-0.18655 -0.163228,-0.342174 -0.336918,-0.433953 a 3.4110336,3.2521496 0 0 1 -0.115097,-0.06335 c -0.170028,-0.09776 -0.376678,-0.12819 -0.562925,-0.06185 l -0.636691,0.227451 A 0.58856025,0.56114547 0 0 1 15.26376,21.805228 l -0.678545,-1.120794 a 0.58856025,0.56114547 0 0 1 0.136022,-0.713777 l 0.525259,-0.412504 c 0.152764,-0.119711 0.228622,-0.305762 0.224961,-0.494806 a 3.6265774,3.4576536 0 0 1 0,-0.127193 c 0.0037,-0.188544 -0.0722,-0.374097 -0.224961,-0.493808 L 14.721237,18.029343 A 0.58856025,0.56114547 0 0 1 14.585215,17.316065 L 15.26376,16.19527 a 0.58856025,0.56114547 0 0 1 0.716735,-0.244909 l 0.636168,0.227451 c 0.186247,0.06634 0.392897,0.03591 0.562925,-0.06185 0.03767,-0.02195 0.07639,-0.0434 0.115097,-0.06385 0.17369,-0.09128 0.304482,-0.246904 0.336918,-0.433454 z"
     id="path1-1"
     style="stroke-width:1.02167" />
  <path
     stroke-linecap="round"
     stroke-linejoin="round"
     d="m 20.571789,18.999999 a 1.5694945,1.4963884 0 1 1 -3.138989,0 1.5694945,1.4963884 0 0 1 3.138989,0 z"
     id="path2-8"
     style="stroke-width:1.02167" />
</svg>
