<?xml version="1.0" encoding="UTF-8" standalone="no"?>
<svg
   width="24px"
   height="24px"
   stroke-width="1.5"
   viewBox="0 0 24 24"
   fill="none"
   color="#000000"
   version="1.1"
   id="svg3"
   sodipodi:docname="gray-filter.svg"
   inkscape:version="1.3 (0e150ed6c4, 2023-07-21)"
   xmlns:inkscape="http://www.inkscape.org/namespaces/inkscape"
   xmlns:sodipodi="http://sodipodi.sourceforge.net/DTD/sodipodi-0.dtd"
   xmlns="http://www.w3.org/2000/svg"
   xmlns:svg="http://www.w3.org/2000/svg">
  <defs
     id="defs3" />
  <sodipodi:namedview
     id="namedview3"
     pagecolor="#ffffff"
     bordercolor="#000000"
     borderopacity="0.25"
     inkscape:showpageshadow="2"
     inkscape:pageopacity="0.0"
     inkscape:pagecheckerboard="0"
     inkscape:deskcolor="#d1d1d1"
     inkscape:zoom="16"
     inkscape:cx="4.625"
     inkscape:cy="3.5"
     inkscape:window-width="1278"
     inkscape:window-height="1008"
     inkscape:window-x="1273"
     inkscape:window-y="0"
     inkscape:window-maximized="0"
     inkscape:current-layer="svg3" />
  <path
     d="M12 14.5a6 6 0 100-12 6 6 0 000 12z"
     stroke="#000000"
     stroke-width="1.5"
     stroke-linecap="round"
     stroke-linejoin="round"
     id="path1" />
  <path
     d="M16 21.5a6 6 0 100-12 6 6 0 000 12z"
     stroke="#000000"
     stroke-width="1.5"
     stroke-linecap="round"
     stroke-linejoin="round"
     id="path2" />
  <path
     d="M8 21.5a6 6 0 100-12 6 6 0 000 12z"
     stroke="#000000"
     stroke-width="1.5"
     stroke-linecap="round"
     stroke-linejoin="round"
     id="path3" />
  <path
     style="fill:#808080;stroke-width:0.043849;fill-opacity:1"
     d="M 11.706251,9.840979 C 10.911243,9.3153734 9.9637465,8.9557713 8.9908508,8.8104064 8.3687682,8.7174583 7.3882962,8.7267379 6.8665965,8.8305118 6.7930003,8.8451509 6.7898504,8.839963 6.7728965,8.6761798 6.7489828,8.4451612 6.8005068,7.8083719 6.8711711,7.4615962 7.0489873,6.5889869 7.4771723,5.7308922 8.0812314,5.0366017 9.127984,3.8334903 10.823761,3.1434732 12.391167,3.282875 c 1.645719,0.1463669 3.05032,0.9675742 3.953384,2.3113668 0.510695,0.7599321 0.800605,1.6026215 0.87123,2.532433 0.02225,0.2929371 0.01683,0.7173971 -0.0092,0.7160305 -0.0018,-9.33e-5 -0.08215,-0.013359 -0.178614,-0.02948 -0.09647,-0.016121 -0.365891,-0.042409 -0.598719,-0.058419 -1.432139,-0.098476 -2.92269,0.2904456 -4.113129,1.0732169 -0.141736,0.093198 -0.270856,0.1779368 -0.286934,0.1883068 -0.01608,0.01037 -0.16142,-0.068537 -0.322982,-0.1753512 z"
     id="path4" />
  <path
     style="fill:#555555;fill-opacity:1;stroke-width:0.043849"
     d="M 15.478685,20.708492 C 14.743273,20.632103 13.939251,20.365176 13.33028,19.995247 L 13.160039,19.89183 13.39986,19.572252 c 0.685449,-0.913407 1.117546,-1.942644 1.289033,-3.070425 0.05866,-0.385766 0.08719,-1.220546 0.05313,-1.554832 l -0.02587,-0.253979 0.180798,-0.07684 c 0.09944,-0.04226 0.335483,-0.169167 0.52454,-0.282011 1.359882,-0.811677 2.292116,-1.913765 2.909995,-3.440198 l 0.02764,-0.06827 0.167574,0.09406 c 1.368526,0.768166 2.300968,2.051784 2.614458,3.599113 0.05874,0.289942 0.06699,0.415279 0.06603,1.003667 -9.59e-4,0.586199 -0.0096,0.711231 -0.0671,0.975775 -0.230122,1.057939 -0.694451,1.934585 -1.41162,2.665113 -1.10929,1.129954 -2.695231,1.706546 -4.24978,1.545071 z"
     id="path5" />
  <path
     style="fill:#aaaaaa;fill-opacity:1;stroke-width:0.043849"
     d="M 7.4710316,20.710486 C 5.3752625,20.470423 3.6513953,19.06653 3.0157462,17.082164 2.8270944,16.493231 2.7940248,16.261875 2.7928164,15.522533 c -9.617e-4,-0.588388 0.00728,-0.713725 0.066026,-1.003667 0.1319534,-0.651299 0.4158319,-1.353858 0.7579206,-1.875748 0.3110684,-0.474565 0.7875538,-0.980734 1.2529392,-1.330993 0.260728,-0.19623 0.7419401,-0.485515 0.7743308,-0.465496 0.012559,0.0078 0.038906,0.06326 0.058549,0.123327 0.019643,0.06007 0.098976,0.244699 0.1762957,0.410289 0.4635715,0.992802 1.1797347,1.867322 2.0870177,2.548497 0.3116797,0.234004 0.88321,0.579507 1.1371505,0.687434 l 0.1807986,0.07684 -0.02592,0.253979 c -0.037454,0.367003 -0.00353,1.21544 0.065098,1.627914 0.1863557,1.120111 0.6043644,2.100853 1.2780415,2.998574 l 0.240744,0.320808 -0.118556,0.07484 c -0.46036,0.290613 -1.2465465,0.585115 -1.8298135,0.68544 -0.3938712,0.06775 -1.0827031,0.09483 -1.4224066,0.05591 z"
     id="path6" />
  <path
     style="fill:#aaaaaa;fill-opacity:1;stroke-width:0.046875"
     d="m 15.65625,20.700841 c -0.742378,-0.04639 -1.607478,-0.309963 -2.251056,-0.685833 l -0.218751,-0.127757 0.13857,-0.180081 c 0.646001,-0.839528 1.110884,-1.84931 1.314616,-2.855509 0.09485,-0.468439 0.153729,-1.31572 0.124598,-1.792924 l -0.02121,-0.347512 0.277188,-0.139794 c 1.074442,-0.541875 1.968754,-1.33053 2.614719,-2.305806 0.206165,-0.311267 0.708831,-1.279945 0.708831,-1.365974 0,-0.065 0.03799,-0.04965 0.331169,0.133856 1.272313,0.796352 2.053268,1.878748 2.422183,3.357118 0.06837,0.273987 0.07411,0.359515 0.07443,1.109375 2.86e-4,0.673569 -0.0092,0.851708 -0.05534,1.041798 -0.34742,1.430637 -1.082483,2.511666 -2.236479,3.289108 -0.69941,0.471189 -1.611173,0.799151 -2.382345,0.856934 -0.127458,0.0095 -0.287992,0.02144 -0.356742,0.02641 -0.06875,0.005 -0.286719,-0.0011 -0.484375,-0.01341 z"
     id="path7" />
  <path
     style="fill:#7e7e7e;fill-opacity:1;stroke-width:0.046875"
     d="m 15.453125,20.66686 c -0.680386,-0.07645 -1.485996,-0.346697 -2.101926,-0.705105 l -0.133175,-0.07749 0.09764,-0.12963 c 0.45846,-0.608674 0.897967,-1.432537 1.119323,-2.098186 0.254389,-0.764987 0.327786,-1.264569 0.329438,-2.24235 6.61e-4,-0.390998 0.01359,-0.71092 0.02872,-0.710937 0.04746,-5.5e-5 0.705137,-0.371698 0.969646,-0.547933 0.747463,-0.498015 1.417469,-1.166328 1.882483,-1.877727 0.194281,-0.297221 0.698472,-1.26585 0.698472,-1.341873 0,-0.0793 0.07663,-0.04635 0.423243,0.181987 1.141297,0.75183 1.873677,1.74128 2.247396,3.036246 0.131645,0.456162 0.149135,0.652811 0.133308,1.498821 -0.01522,0.813614 -0.0198,0.847417 -0.184445,1.362947 -0.439567,1.376325 -1.408112,2.506889 -2.697627,3.148889 -0.845609,0.420996 -1.884716,0.606593 -2.8125,0.502346 z"
     id="path8" />
  <path
     style="fill:#aaaaaa;fill-opacity:1;stroke-width:0.046875"
     d="m 7.1875,20.654143 c -0.1289063,-0.02384 -0.2519531,-0.03707 -0.2734375,-0.02941 -0.021484,0.0077 -0.039063,3.09e-4 -0.039063,-0.01634 0,-0.01665 -0.024609,-0.03048 -0.054687,-0.03073 C 6.7902345,20.57741 6.5993131,20.521243 6.3960431,20.452843 4.800422,19.915938 3.6102282,18.740913 3.0673853,17.166609 2.843574,16.517532 2.828125,16.409919 2.828125,15.5 c 0,-0.781747 0.00322,-0.825189 0.085169,-1.147751 0.2794479,-1.099988 0.8006921,-1.984539 1.6023308,-2.719153 0.3334995,-0.305616 1.1082635,-0.822789 1.1314312,-0.755257 0.00536,0.01563 0.078753,0.187987 0.1630939,0.383025 0.5987046,1.3845 1.8452799,2.67727 3.2144183,3.333536 l 0.242585,0.116277 -0.027884,0.300912 c -0.032303,0.348605 0.017319,1.279283 0.09019,1.691536 0.063493,0.359197 0.2331878,0.96875 0.2696931,0.96875 0.016244,0 0.021135,0.01359 0.010867,0.03021 -0.034026,0.05505 0.3898894,1.032294 0.4477977,1.032294 0.01403,0 0.02552,0.01967 0.02552,0.04371 0,0.05988 0.251889,0.459038 0.509903,0.808031 0.153315,0.207375 0.204699,0.299646 0.182115,0.32702 -0.04773,0.05785 -0.694402,0.369693 -0.9885963,0.47673 -0.3678894,0.133851 -0.8180125,0.244263 -1.14613,0.281139 -0.3918216,0.04404 -1.1728222,0.03497 -1.453125,-0.01686 z"
     id="path9" />
  <path
     style="fill:#aaaaaa;fill-opacity:1;stroke-width:0.046875"
     d="M 11.810662,9.881165 C 11.717142,9.8243994 11.583124,9.7412775 11.512846,9.69645 11.291544,9.5552922 10.715393,9.2781256 10.392339,9.1574131 9.8846128,8.9676956 9.105339,8.7859781 8.6875,8.7598647 8.3732042,8.7402222 7.119352,8.7629862 6.9843996,8.790785 6.8984756,8.8084844 6.8222874,8.817079 6.8150926,8.8098844 6.7478306,8.7426222 6.8047534,7.8509787 6.9056986,7.390625 7.1336853,6.3509073 7.7800935,5.253755 8.5547525,4.5916762 9.6229594,3.6787105 11.053612,3.1912377 12.34375,3.3006338 c 2.592179,0.2198016 4.561153,2.127185 4.841776,4.6903221 0.03849,0.351566 0.04384,0.7965256 0.0098,0.8148313 -0.01289,0.00693 -0.171093,-0.00523 -0.351562,-0.027018 -0.588474,-0.071054 -1.9375,-0.035654 -1.9375,0.050842 0,0.013152 -0.02625,0.017048 -0.05833,0.00866 -0.07752,-0.020273 -0.657676,0.1209147 -1.066665,0.2595857 -0.431615,0.1463418 -0.999468,0.4189634 -1.411772,0.67778 -0.182892,0.1148072 -0.345187,0.2087403 -0.360656,0.2087403 -0.01547,0 -0.10464,-0.046445 -0.19816,-0.10321 z"
     id="path10" />
  <path
     style="fill:#aaaaaa;fill-opacity:1;stroke-width:0.046875"
     d="M 11.804569,18.617187 C 11.119617,17.665057 10.78125,16.662979 10.78125,15.586619 v -0.422796 l 0.148437,0.01939 c 0.819319,0.107044 1.321307,0.107044 2.140625,0 l 0.148438,-0.01939 v 0.422796 c 0,0.881751 -0.262581,1.82406 -0.716046,2.569631 -0.163853,0.269402 -0.473947,0.703125 -0.502704,0.703125 -0.01166,0 -0.09961,-0.108984 -0.195431,-0.242188 z"
     id="path11" />
  <path
     style="fill:#565656;fill-opacity:1;stroke-width:0.046875"
     d="M 14.222079,12.8447 C 14.042241,12.406797 13.734606,11.873505 13.41998,11.454245 l -0.259986,-0.346449 0.11766,-0.07428 c 0.597243,-0.377023 1.442385,-0.659141 2.212643,-0.738606 0.354546,-0.03658 0.9656,-0.02343 1.282271,0.02758 l 0.131942,0.02126 -0.118025,0.265625 c -0.456168,1.02664 -1.310444,1.96266 -2.246693,2.461676 l -0.184393,0.09828 z"
     id="path12" />
  <path
     style="fill:#2b2b2b;fill-opacity:1;stroke-width:0.046875"
     d="M 11.703125,9.7931922 C 11.404131,9.6035609 10.718556,9.2620565 10.682097,9.2845894 c -0.01422,0.00879 -0.02585,0.00322 -0.02585,-0.01238 0,-0.03628 -0.249809,-0.135391 -0.285562,-0.113295 -0.01482,0.00916 -0.02694,2.518e-4 -0.02694,-0.019789 0,-0.020041 -0.02109,-0.028343 -0.04687,-0.01845 -0.02578,0.00989 -0.04687,0.00548 -0.04687,-0.0098 0,-0.024788 -0.153037,-0.076152 -0.234375,-0.078662 -0.017193,-5.294e-4 -0.038286,-0.0092 -0.04688,-0.01927 C 9.9427875,8.982525 9.5298204,8.88782 9.500949,8.9056634 9.4861755,8.914794 9.4691976,8.9075928 9.4632203,8.8896609 9.4572429,8.8717287 9.389245,8.8540631 9.3121137,8.8504037 9.2349824,8.846744 9.1627312,8.8311278 9.1515555,8.8157009 9.1403798,8.8002737 9.0384591,8.7862112 8.9250651,8.7844509 8.8116711,8.7826903 8.7188618,8.7685165 8.7188221,8.7529534 8.718756,8.72703 7.5528763,8.74372 7.0252248,8.7771981 l -0.2091502,0.01327 -0.0096,-0.3718556 c -0.00528,-0.2045206 -9.926e-4,-0.3718291 0.00953,-0.3717966 0.01052,3.25e-5 0.028869,-0.1074512 0.040777,-0.2388525 C 6.9314342,6.9841131 7.3984076,5.9321547 8.0338974,5.15625 8.7555488,4.2751457 9.8705934,3.6304751 11.096065,3.385837 c 0.528934,-0.1055898 1.296681,-0.099522 1.843293,0.014568 0.546202,0.1140046 0.915721,0.2404797 1.388767,0.4753324 0.52931,0.2627862 0.919891,0.5441534 1.34375,0.9680123 0.412211,0.4122108 0.698637,0.8071274 0.951935,1.3125 0.357129,0.7125331 0.525208,1.3652822 0.554428,2.1531669 l 0.01843,0.4969168 -0.137396,-0.023047 C 16.866625,8.7509725 15.25,8.7275065 15.25,8.7570247 c 0,0.013324 -0.0668,0.026215 -0.148438,0.028646 -0.250713,0.00747 -0.987947,0.1687044 -1.050683,0.2297909 -0.01498,0.014591 -0.04663,0.019092 -0.07031,0.010003 -0.02369,-0.00909 -0.04307,-0.0014 -0.04307,0.017086 0,0.018487 -0.02109,0.025518 -0.04687,0.015625 -0.02578,-0.00989 -0.04687,-0.00159 -0.04687,0.01845 0,0.020041 -0.01259,0.028654 -0.02799,0.019141 -0.06172,-0.038144 -1.154886,0.4506232 -1.285988,0.5749791 -0.02784,0.026402 -0.06544,0.050994 -0.08356,0.054649 -0.01812,0.00365 -0.11539,0.056352 -0.216146,0.1171068 C 12.129311,9.9032562 12.025781,9.9526912 12,9.9523572 11.974219,9.9520234 11.840625,9.880399 11.703125,9.7931922 Z"
     id="path13" />
  <path
     style="fill:#d4d4d4;fill-opacity:1;stroke-width:0.046875"
     d="m 7.1875,20.656273 c -0.1289063,-0.02501 -0.2519531,-0.0392 -0.2734375,-0.03154 -0.021484,0.0077 -0.039063,3.09e-4 -0.039063,-0.01634 0,-0.01665 -0.024609,-0.03048 -0.054687,-0.03073 C 6.7902344,20.577412 6.596875,20.520468 6.390625,20.451123 4.6192096,19.855543 3.3789206,18.49572 2.9008341,16.625 2.8070854,16.258168 2.7824499,15.092032 2.8587741,14.634068 3.0835726,13.285221 3.939231,11.953725 5.0625,11.204834 c 0.2607,-0.17381 0.5447276,-0.345459 0.5716316,-0.345459 0.0075,0 0.038724,0.0668 0.069398,0.148437 0.090958,0.242089 0.3274156,0.726563 0.3546144,0.726563 0.013854,0 0.025189,0.02002 0.025189,0.04449 0,0.154196 0.9285747,1.393013 1.0441544,1.393013 0.017848,0 0.024516,0.01284 0.014818,0.02853 -0.031983,0.05175 0.9630841,0.893527 1.0169131,0.860259 0.011953,-0.0074 0.028654,0.0046 0.037113,0.02665 0.018594,0.04846 0.3910953,0.282476 0.449629,0.282476 0.022847,0 0.041539,0.01181 0.041539,0.02625 0,0.01444 0.1305834,0.09111 0.2901856,0.170396 l 0.2901853,0.144149 -0.025586,0.238458 c -0.04617,0.430299 0.014486,1.386694 0.1211584,1.910333 0.074703,0.366709 0.2043331,0.8125 0.2362638,0.8125 0.01594,0 0.020581,0.01359 0.010314,0.03021 -0.034981,0.0566 0.3924614,1.032294 0.4522374,1.032294 0.01159,0 0.02107,0.01967 0.02107,0.04371 0,0.05882 0.238618,0.436653 0.50526,0.800042 0.159169,0.216921 0.209201,0.307404 0.185769,0.335969 -0.05977,0.07287 -0.7881189,0.410851 -1.133737,0.526102 -0.5859422,0.195389 -0.8293366,0.234112 -1.5625,0.248589 -0.4911131,0.0097 -0.7152275,0.0015 -0.890625,-0.03251 z"
     id="path14" />
  <path
     style="fill:#000000;fill-opacity:1;stroke-width:0.046875"
     d="m 11.40625,13.701761 c -0.128906,-0.01597 -0.251913,-0.03274 -0.273349,-0.03727 -0.05096,-0.01077 0.184203,-0.534652 0.386375,-0.860749 0.168104,-0.271148 0.45343,-0.663113 0.482704,-0.663113 0.02688,0 0.340852,0.440438 0.501236,0.703125 0.07346,0.120312 0.194121,0.352344 0.268142,0.515625 l 0.134583,0.296875 -0.132658,0.02234 c -0.228212,0.03843 -1.121665,0.05357 -1.367033,0.02317 z"
     id="path15" />
  <path
     style="fill:#7e7e7e;fill-opacity:1;stroke-width:0.046875"
     d="M 9.3807664,13.022956 C 8.4473798,12.482688 7.6772273,11.630154 7.228642,10.640625 L 7.0940591,10.34375 7.226717,10.322323 c 0.072962,-0.01178 0.3154705,-0.03118 0.538908,-0.0431 0.6264047,-0.03342 1.2921462,0.05692 1.8826346,0.255462 0.2729039,0.09176 0.8607934,0.363815 1.0643674,0.49255 l 0.134501,0.08506 -0.122871,0.14698 c -0.333337,0.398738 -0.7271721,1.059231 -0.9472369,1.588591 -0.070511,0.169613 -0.131001,0.311687 -0.1344213,0.315719 -0.00342,0.004 -0.1212448,-0.05925 -0.2618324,-0.140625 z"
     id="path16" />
</svg>
