<?xml version="1.0" encoding="UTF-8" standalone="no"?>
<svg
   width="24px"
   height="24px"
   viewBox="0 0 24 24"
   stroke-width="1.5"
   fill="none"
   color="#000000"
   version="1.1"
   id="svg3"
   sodipodi:docname="log.svg"
   inkscape:version="1.3 (0e150ed6c4, 2023-07-21)"
   xmlns:inkscape="http://www.inkscape.org/namespaces/inkscape"
   xmlns:sodipodi="http://sodipodi.sourceforge.net/DTD/sodipodi-0.dtd"
   xmlns="http://www.w3.org/2000/svg"
   xmlns:svg="http://www.w3.org/2000/svg">
  <defs
     id="defs3" />
  <sodipodi:namedview
     id="namedview3"
     pagecolor="#ffffff"
     bordercolor="#000000"
     borderopacity="0.25"
     inkscape:showpageshadow="2"
     inkscape:pageopacity="0.0"
     inkscape:pagecheckerboard="0"
     inkscape:deskcolor="#d1d1d1"
     inkscape:zoom="34.208333"
     inkscape:cx="11.985384"
     inkscape:cy="12"
     inkscape:window-width="2560"
     inkscape:window-height="1017"
     inkscape:window-x="-8"
     inkscape:window-y="-8"
     inkscape:window-maximized="1"
     inkscape:current-layer="svg3" />
  <path
     d="m 6.840321,22.641083 c 2.9944815,0 5.42233,-2.358251 5.42233,-5.267481 0,-2.90923 -2.4278485,-5.267481 -5.42233,-5.267481 -2.9944821,0 -5.4223306,2.358251 -5.4223306,5.267481 0,2.90923 2.4278485,5.267481 5.4223306,5.267481 z"
     stroke="#000000"
     stroke-width="0.896274"
     stroke-linecap="round"
     stroke-linejoin="round"
     id="path2"
     style="stroke-width:1.5;stroke-dasharray:none" />
  <path
     d="m 16.330507,12.041562 c 2.99448,0 5.42233,-2.3582487 5.42233,-5.2674791 0,-2.9092298 -2.42785,-5.2674811 -5.42233,-5.2674811 -2.994482,0 -5.422331,2.3582513 -5.422331,5.2674811 0,2.9092304 2.427849,5.2674791 5.422331,5.2674791 z"
     stroke="#000000"
     stroke-width="0.896274"
     stroke-linecap="round"
     stroke-linejoin="round"
     id="path2-3"
     style="stroke-width:1.5;stroke-dasharray:none" />
  <path
     style="fill:none;fill-rule:evenodd;stroke:#000000;stroke-width:1.5;stroke-linecap:butt;stroke-linejoin:miter;stroke-opacity:1;stroke-dasharray:none"
     d="M 10.318098,21.343813 20.073669,10.344745"
     id="path4-8"
     inkscape:connector-type="polyline"
     inkscape:connector-curvature="0" />
  <path
     style="fill:none;fill-rule:evenodd;stroke:#000000;stroke-width:1.5;stroke-linecap:butt;stroke-linejoin:miter;stroke-opacity:1;stroke-dasharray:none"
     d="M 3.3272515,13.701448 13.082823,2.7023822"
     id="path4-8-2"
     inkscape:connector-type="polyline"
     inkscape:connector-curvature="0" />
  <ellipse
     style="fill:#ffffff;stroke-width:1.53576"
     id="path7"
     cx="14.632545"
     cy="8.718399"
     rx="4.6729722"
     ry="4.6229692" />
  <ellipse
     style="fill:#ffffff;stroke-width:1.6223"
     id="path7-0"
     cx="16.344824"
     cy="6.7977257"
     rx="4.8963127"
     ry="4.9233785" />
  <ellipse
     style="fill:#ffffff;stroke-width:1.62255"
     id="path7-1"
     cx="6.8428268"
     cy="17.374647"
     rx="4.982213"
     ry="4.839932" />
  <path
     d="m 6.8741221,19.216109 c 0.777613,0 1.408081,-0.665771 1.408081,-1.487093 0,-0.821321 -0.630468,-1.487093 -1.408081,-1.487093 -0.777613,0 -1.408081,0.665772 -1.408081,1.487093 0,0.821322 0.630468,1.487093 1.408081,1.487093 z"
     stroke="#000000"
     stroke-width="0.242677"
     stroke-linecap="round"
     stroke-linejoin="round"
     id="path2-8"
     style="stroke-width:1;stroke-dasharray:none" />
  <path
     style="fill:none;fill-rule:evenodd;stroke:#000000;stroke-width:1.5;stroke-linecap:butt;stroke-linejoin:miter;stroke-dasharray:none;stroke-opacity:1"
     d="M 8.4943533,12.347671 14.737745,6.0659652"
     id="path4-8-9"
     inkscape:connector-type="polyline"
     inkscape:connector-curvature="0" />
  <path
     style="fill:none;fill-rule:evenodd;stroke:#000000;stroke-width:1.5;stroke-linecap:butt;stroke-linejoin:miter;stroke-opacity:1;stroke-dasharray:none"
     d="M 14.972938,10.342149 21.216329,4.0604439"
     id="path4-8-9-4"
     inkscape:connector-type="polyline"
     inkscape:connector-curvature="0" />
</svg>
