<?xml version="1.0" encoding="UTF-8" standalone="no"?>
<svg
   class="icon icon-tabler icon-tabler-square-toggle"
   width="24"
   height="24"
   viewBox="0 0 24 24"
   stroke-width="2"
   stroke="currentColor"
   fill="none"
   stroke-linecap="round"
   stroke-linejoin="round"
   version="1.1"
   id="svg6"
   sodipodi:docname="noise-toggle.svg"
   inkscape:version="1.3 (0e150ed6c4, 2023-07-21)"
   xmlns:inkscape="http://www.inkscape.org/namespaces/inkscape"
   xmlns:sodipodi="http://sodipodi.sourceforge.net/DTD/sodipodi-0.dtd"
   xmlns="http://www.w3.org/2000/svg"
   xmlns:svg="http://www.w3.org/2000/svg">
  <defs
     id="defs6" />
  <sodipodi:namedview
     id="namedview6"
     pagecolor="#ffffff"
     bordercolor="#000000"
     borderopacity="0.25"
     inkscape:showpageshadow="2"
     inkscape:pageopacity="0.0"
     inkscape:pagecheckerboard="0"
     inkscape:deskcolor="#d1d1d1"
     inkscape:zoom="34.208333"
     inkscape:cx="25.768575"
     inkscape:cy="12.292326"
     inkscape:window-width="2560"
     inkscape:window-height="1017"
     inkscape:window-x="-8"
     inkscape:window-y="-8"
     inkscape:window-maximized="1"
     inkscape:current-layer="svg6" />
  <path
     stroke="none"
     d="M0 0h24v24H0z"
     fill="none"
     id="path1" />
  <path
     d="M12 2l0 20"
     id="path2" />
  <path
     d="M14 20h-8a2 2 0 0 1 -2 -2v-12a2 2 0 0 1 2 -2h8"
     id="path3" />
  <path
     d="M20 6a2 2 0 0 0 -2 -2"
     id="path4" />
  <path
     d="M18 20a2 2 0 0 0 2 -2"
     id="path5" />
  <path
     d="M20 10l0 4"
     id="path6" />
  <path
     stroke="none"
     d="m 5.3714985,10.886724 h 5.1449455 v 5.758831 H 5.3714985 Z"
     fill="none"
     id="path1-4"
     style="stroke-width:0.453603" />
  <path
     d="m 6.4311816,14.544711 m -0.2143728,0 a 0.21437285,0.23995143 0 1 0 0.4287457,0 0.21437285,0.23995143 0 1 0 -0.4287457,0"
     id="path2-1"
     style="stroke-width:0.453603" />
  <path
     d="m 7.5030453,13.344955 m -0.2143728,0 a 0.21437285,0.23995143 0 1 0 0.4287457,0 0.21437285,0.23995143 0 1 0 -0.4287457,0"
     id="path3-7"
     style="stroke-width:0.453603" />
  <path
     d="m 7.5030453,15.744468 m -0.2143728,0 a 0.21437285,0.23995143 0 1 0 0.4287457,0 0.21437285,0.23995143 0 1 0 -0.4287457,0"
     id="path4-0"
     style="stroke-width:0.453603" />
  <path
     d="m 6.4311816,16.944224 m -0.2143728,0 a 0.21437285,0.23995143 0 1 0 0.4287457,0 0.21437285,0.23995143 0 1 0 -0.4287457,0"
     id="path5-3"
     style="stroke-width:0.453603" />
  <path
     d="m 8.5749098,14.544711 m -0.214373,0 a 0.21437285,0.23995143 0 1 0 0.428745,0 0.21437285,0.23995143 0 1 0 -0.428745,0"
     id="path6-2"
     style="stroke-width:0.453603" />
  <path
     d="m 9.6467728,13.344955 m -0.214373,0 a 0.214373,0.23995159 0 1 0 0.428746,0 0.214373,0.23995159 0 1 0 -0.428746,0"
     id="path7"
     style="stroke-width:0.453603" />
  <path
     d="m 8.5749098,16.944224 m -0.214373,0 a 0.21437285,0.23995143 0 1 0 0.428745,0 0.21437285,0.23995143 0 1 0 -0.428745,0"
     id="path8"
     style="stroke-width:0.453603" />
  <path
     d="m 9.6467728,15.744468 m -0.214373,0 a 0.214373,0.23995159 0 1 0 0.428746,0 0.214373,0.23995159 0 1 0 -0.428746,0"
     id="path9"
     style="stroke-width:0.453603" />
  <path
     d="m 6.1559075,7.5995225 m -0.2143728,0 a 0.21437285,0.23995143 0 1 0 0.4287457,0 0.21437285,0.23995143 0 1 0 -0.4287457,0"
     id="path2-1-0"
     style="stroke-width:0.453603" />
  <path
     d="m 7.2277712,6.3997665 m -0.2143728,0 a 0.21437285,0.23995143 0 1 0 0.4287457,0 0.21437285,0.23995143 0 1 0 -0.4287457,0"
     id="path3-7-8"
     style="stroke-width:0.453603" />
  <path
     d="m 7.2277712,8.7992795 m -0.2143728,0 a 0.21437285,0.23995143 0 1 0 0.4287457,0 0.21437285,0.23995143 0 1 0 -0.4287457,0"
     id="path4-0-0"
     style="stroke-width:0.453603" />
  <path
     d="m 6.1559075,9.9990355 m -0.2143728,0 a 0.21437285,0.23995143 0 1 0 0.4287457,0 0.21437285,0.23995143 0 1 0 -0.4287457,0"
     id="path5-3-7"
     style="stroke-width:0.453603" />
  <path
     d="m 8.2996352,7.5995225 m -0.2143729,0 a 0.21437285,0.23995143 0 1 0 0.4287457,0 0.21437285,0.23995143 0 1 0 -0.4287457,0"
     id="path6-2-9"
     style="stroke-width:0.453603" />
  <path
     d="m 9.3714989,6.3997665 m -0.2143729,0 a 0.21437272,0.23995128 0 1 0 0.4287452,0 0.21437272,0.23995128 0 1 0 -0.4287452,0"
     id="path7-5"
     style="stroke-width:0.453603" />
  <path
     d="m 8.2996352,9.9990355 m -0.2143729,0 a 0.21437285,0.23995143 0 1 0 0.4287457,0 0.21437285,0.23995143 0 1 0 -0.4287457,0"
     id="path8-3"
     style="stroke-width:0.453603" />
  <path
     d="m 9.3714989,8.7992795 m -0.2143729,0 a 0.21437272,0.23995128 0 1 0 0.4287452,0 0.21437272,0.23995128 0 1 0 -0.4287452,0"
     id="path9-6"
     style="stroke-width:0.453603" />
  <path
     d="m 5.4604142,11.361754 m -0.2143728,0 a 0.21437285,0.23995143 0 1 0 0.4287457,0 0.21437285,0.23995143 0 1 0 -0.4287457,0"
     id="path2-1-0-1"
     style="stroke-width:0.453603" />
  <path
     d="m 6.5322779,12.561511 m -0.2143728,0 a 0.21437285,0.23995143 0 1 0 0.4287457,0 0.21437285,0.23995143 0 1 0 -0.4287457,0"
     id="path4-0-0-4"
     style="stroke-width:0.453603" />
  <path
     d="m 7.6041419,11.361754 m -0.2143729,0 a 0.21437285,0.23995143 0 1 0 0.4287457,0 0.21437285,0.23995143 0 1 0 -0.4287457,0"
     id="path6-2-9-0"
     style="stroke-width:0.453603" />
  <path
     d="m 8.6760054,12.561511 m -0.214373,0 a 0.214373,0.23995159 0 1 0 0.428746,0 0.214373,0.23995159 0 1 0 -0.428746,0"
     id="path9-6-5"
     style="stroke-width:0.453603" />
  <path
     d="m 14.559075,7.1244921 m -0.214373,0 a 0.214373,0.2399516 0 1 0 0.428746,0 0.214373,0.2399516 0 1 0 -0.428746,0"
     id="path2-1-1"
     style="stroke-width:0.453603" />
  <path
     d="m 15.689404,15.983202 m -0.214373,0 a 0.21437285,0.23995143 0 1 0 0.428745,0 0.21437285,0.23995143 0 1 0 -0.428745,0"
     id="path4-0-7"
     style="stroke-width:0.453603" />
  <path
     d="m 14.61754,12.973457 m -0.214373,0 a 0.214373,0.2399516 0 1 0 0.428746,0 0.214373,0.2399516 0 1 0 -0.428746,0"
     id="path5-3-9"
     style="stroke-width:0.453603" />
  <path
     d="m 15.767358,9.9892911 m -0.214373,0 a 0.21437285,0.23995143 0 1 0 0.428745,0 0.21437285,0.23995143 0 1 0 -0.428745,0"
     id="path6-2-6"
     style="stroke-width:0.453603" />
  <path
     d="m 17.891596,8.5556739 m -0.214373,0 a 0.214373,0.23995159 0 1 0 0.428746,0 0.214373,0.23995159 0 1 0 -0.428746,0"
     id="path7-0"
     style="stroke-width:0.453603" />
  <path
     d="m 16.761268,12.973457 m -0.214373,0 a 0.21437285,0.23995143 0 1 0 0.428745,0 0.21437285,0.23995143 0 1 0 -0.428745,0"
     id="path8-4"
     style="stroke-width:0.453603" />
  <path
     d="m 17.891596,17.474066 m -0.214373,0 a 0.214373,0.23995159 0 1 0 0.428746,0 0.214373,0.23995159 0 1 0 -0.428746,0"
     id="path9-68"
     style="stroke-width:0.453603" />
</svg>
